<svg height="511pt" viewBox="0 -27 511.9995 511" width="511pt" xmlns="http://www.w3.org/2000/svg"><path d="m447.1875 448.683594h-384.445312c-20.667969 0-37.578126-16.910156-37.578126-37.578125v-274.152344c0-20.667969 16.910157-37.578125 37.578126-37.578125h384.445312c20.671875 0 37.578125 16.910156 37.578125 37.578125v274.152344c.003906 20.667969-16.90625 37.578125-37.578125 37.578125zm0 0" fill="#d0cfd1"/><path d="m447.1875 99.375h-16.179688c20.667969 0 37.578126 16.910156 37.578126 37.578125v274.152344c0 20.667969-16.910157 37.578125-37.578126 37.578125h16.179688c20.671875 0 37.582031-16.910156 37.582031-37.578125v-274.152344c0-20.667969-16.910156-37.578125-37.582031-37.578125zm0 0" fill="#9c9b9d"/><path d="m62.742188 416.472656c-2.859376 0-5.367188-2.507812-5.367188-5.367187v-274.152344c0-2.859375 2.507812-5.367187 5.367188-5.367187h384.449218c2.859375 0 5.367188 2.507812 5.367188 5.367187v274.152344c0 2.859375-2.507813 5.367187-5.367188 5.367187zm0 0" fill="#4890e3"/><path d="m447.1875 131.585938h-24.273438c2.859376 0 5.367188 2.507812 5.367188 5.367187v274.152344c0 2.859375-2.507812 5.367187-5.367188 5.367187h24.273438c2.859375 0 5.371094-2.507812 5.371094-5.367187v-274.152344c0-2.859375-2.511719-5.367187-5.371094-5.367187zm0 0" fill="#2970d6"/><path d="m7.515625 397.597656v16.148438c0 19.441406 15.902344 35.34375 35.34375 35.34375h424.214844c19.4375 0 35.34375-15.902344 35.34375-35.34375v-16.148438zm0 0" fill="#d0cfd1"/><path d="m478.144531 397.59375v16.152344c0 19.441406-15.90625 35.34375-35.34375 35.34375h24.273438c19.4375 0 35.34375-15.902344 35.34375-35.34375v-16.152344zm0 0" fill="#9c9b9d"/><path d="m503.5625 28.925781c-54.148438 0-76.175781-20.890625-76.175781-20.890625s-22.027344 20.890625-76.179688 20.890625c0 0-14.683593 161.789063 76.179688 161.789063s76.175781-161.789063 76.175781-161.789063zm0 0" fill="#f9cd45"/><path d="m503.5625 28.925781c-54.148438 0-76.175781-20.890625-76.175781-20.890625s-3.816407 3.605469-12.136719 7.816406c11.714844 5.933594 32.378906 23.1875 64.039062 23.1875 0 0 13.335938 136.808594-64.039062 150.632813 3.820312.683594 7.859375 1.042969 12.136719 1.042969 90.863281 0 76.175781-161.789063 76.175781-161.789063zm0 0" fill="#f8b53c"/><path d="m466.785156 73.40625h-20.636718v-20.636719h-37.523438v20.636719h-20.636719v37.523438h20.636719v20.636718h37.523438v-20.636718h20.636718zm0 0" fill="#f45a3c"/><path d="m317.757812 249.101562c0 36.796876-29.828124 66.628907-66.628906 66.628907-36.796875 0-66.628906-29.832031-66.628906-66.628907 0-36.796874 29.832031-66.628906 66.628906-66.628906 36.800782 0 66.628906 29.832032 66.628906 66.628906zm0 0" fill="#00bf9e"/><path d="m251.128906 182.472656c-3.96875 0-7.851562.367188-11.628906 1.035156 31.246094 5.503907 54.996094 32.765626 54.996094 65.59375 0 32.828126-23.75 60.09375-54.996094 65.597657 3.777344.664062 7.660156 1.03125 11.628906 1.03125 36.800782 0 66.628906-29.828125 66.628906-66.628907 0-36.796874-29.828124-66.628906-66.628906-66.628906zm0 0" fill="#00a983"/><path d="m502.417969 390.082031h-10.136719v-234.023437c25.507812-49.140625 19.09375-124.183594 18.765625-127.8125-.351563-3.871094-3.597656-6.835938-7.484375-6.835938-49.921875 0-70.84375-18.679687-71.007812-18.828125-2.898438-2.75-7.398438-2.789062-10.296876-.039062-.203124.1875-21.125 18.867187-71.050781 18.867187-3.886719 0-7.128906 2.964844-7.484375 6.835938-.199218 2.199218-2.628906 30.625 1.15625 63.613281h-206.21875c-4.148437 0-7.511718 3.367187-7.511718 7.515625s3.363281 7.515625 7.511718 7.515625h208.363282c.988281 5.722656 2.191406 11.484375 3.644531 17.179687h-287.925781c-6.980469 0-12.882813 5.898438-12.882813 12.882813v253.128906h-17.179687v-253.128906c0-16.578125 13.488281-30.0625 30.0625-30.0625h45.46875c4.152343 0 7.515624-3.367187 7.515624-7.515625s-3.363281-7.515625-7.515624-7.515625h-45.46875c-24.863282 0-45.09375 20.230469-45.09375 45.09375v253.128906h-10.132813c-4.152344 0-7.515625 3.363281-7.515625 7.515625v16.148438c0 23.632812 19.226562 42.859375 42.859375 42.859375h346.527344c4.148437 0 7.511719-3.363281 7.511719-7.515625 0-4.148438-3.363282-7.511719-7.511719-7.511719h-346.527344c-15.347656 0-27.832031-12.484375-27.832031-27.832031v-8.636719h479.875v8.636719c0 15.347656-12.484375 27.832031-27.828125 27.832031h-47.234375c-4.152344 0-7.515625 3.363281-7.515625 7.511719 0 4.148437 3.363281 7.515625 7.515625 7.515625h47.234375c23.632812 0 42.855469-19.226563 42.855469-42.859375v-16.152344c0-4.148438-3.363282-7.511719-7.511719-7.511719zm-25.164063-212.660156v212.660156h-17.183594v-199.59375c6.25-3.300781 11.984376-7.664062 17.183594-13.066406zm-118.984375-141.101563c38.015625-1.273437 59.90625-12.648437 69.117188-18.859374 9.210937 6.210937 31.101562 17.585937 69.117187 18.859374.953125 19.488282 1.789063 76.9375-18.171875 114.027344-.117187.199219-.230469.402344-.332031.609375-3.003906 5.488281-6.46875 10.523438-10.472656 14.902344-5.226563 5.71875-11.050782 9.988281-17.554688 12.867187-.269531.097657-.535156.214844-.789062.34375-6.554688 2.761719-13.789063 4.132813-21.796875 4.132813-16.347657 0-29.480469-5.675781-40.144531-17.34375-8.746094-9.570313-14.949219-22.246094-19.324219-36.027344-.078125-.316406-.171875-.628906-.289063-.929687-10.847656-34.921875-10.144531-76.570313-9.359375-92.582032zm-293.378906 102.777344h290.316406c4.902344 13.875 11.65625 26.730469 20.925781 36.882813 13.488282 14.761719 30.730469 22.25 51.253907 22.25 6.191406 0 12.078125-.695313 17.65625-2.050781v193.902343h-380.152344zm0 0"/><path d="m387.988281 118.445312h13.125v13.121094c0 4.152344 3.363281 7.515625 7.511719 7.515625h37.523438c4.152343 0 7.515624-3.363281 7.515624-7.515625v-13.121094h13.121094c4.152344 0 7.515625-3.367187 7.515625-7.515624v-37.523438c0-4.148438-3.363281-7.511719-7.515625-7.511719h-13.121094v-13.125c0-4.148437-3.363281-7.511719-7.515624-7.511719h-37.523438c-4.148438 0-7.511719 3.363282-7.511719 7.511719v13.125h-13.125c-4.148437 0-7.511719 3.363281-7.511719 7.511719v37.523438c0 4.148437 3.363282 7.515624 7.511719 7.515624zm7.515625-37.523437h13.121094c4.152344 0 7.515625-3.363281 7.515625-7.515625v-13.121094h22.492187v13.121094c0 4.152344 3.363282 7.515625 7.515626 7.515625h13.125v22.492187h-13.125c-4.152344 0-7.515626 3.367188-7.515626 7.515626v13.125h-22.492187v-13.125c0-4.148438-3.363281-7.515626-7.515625-7.515626h-13.121094zm0 0"/><path d="m251.128906 174.960938c-40.882812 0-74.140625 33.257812-74.140625 74.140624 0 40.882813 33.257813 74.144532 74.140625 74.144532 40.886719 0 74.144532-33.261719 74.144532-74.144532 0-40.882812-33.257813-74.140624-74.144532-74.140624zm0 133.253906c-32.59375 0-59.113281-26.515625-59.113281-59.113282 0-32.597656 26.519531-59.113281 59.113281-59.113281 32.597656 0 59.117188 26.515625 59.117188 59.113281 0 32.597657-26.519532 59.113282-59.117188 59.113282zm0 0"/><path d="m267.597656 228.621094-22.492187 24.359375-10.101563-12.582031c-2.601562-3.234376-7.328125-3.753907-10.5625-1.15625-3.238281 2.597656-3.753906 7.328124-1.15625 10.5625l15.5625 19.382812c1.371094 1.707031 3.414063 2.730469 5.601563 2.808594.085937 0 .171875.003906.257812.003906 2.09375 0 4.097657-.875 5.519531-2.417969l28.410157-30.765625c2.816406-3.046875 2.628906-7.800781-.421875-10.617187-3.050782-2.816407-7.804688-2.625-10.617188.421875zm0 0"/></svg>